:SAMPLES-PER-SECOND 30
:FULLY-SPECIFIED
:DEGREES
335
root  5.23408 26.9481 -58.626 -172.866 -2.65474 -175.099
RightUpLeg  -72.4791 -7.27589 13.5775
RightLeg  81.623 14.8147 -14.6025
RightFoot  -20.0615 0.0173882 -0.785507
RightToes  -1.16415e-010 -3.18055e-015 -2.98177e-016
Spine  39.0236 -3.61808 4.86634
Spine1  -3.29875 -2.94223 8.53792
HEad  -20.7391 5.50284 4.07737
LeftShoulder1  -3.88251e-019 9.70628e-020 -3.87848e-018
LeftArm  -22.3227 15.5409 -65.9752
LeftForeArm  7.65874 -36.5262 8.71634
LeftHand  -5.98644 -10.4521 43.1335
RightShoulder  5.35467 9.55125 25.9491
RightArm  3.16589 -40.9593 23.4313
RightForeArm  -0.962565 38.1894 -21.4253
RightHand  -2.36085 4.10133 -28.101
LeftUpLeg  -30.3377 -0.098441 11.198
LeftLeg  94.1235 -14.0965 5.58856
LeftFoot  -50.1721 -6.58589 -19.0601
LeftToes  1.69338e-011 3.79281e-011 -2.20049e-011
336
root  5.17047 26.9237 -58.5035 -173.318 -2.9086 -175.206
RightUpLeg  -72.242 -7.82761 13.3203
RightLeg  81.7056 14.8529 -14.2125
RightFoot  -20.0098 0.0235048 -0.684779
RightToes  -1.16415e-010 -3.18055e-015 -2.98177e-016
Spine  39.0937 -3.66318 4.82527
Spine1  -3.53196 -2.89436 8.06418
HEad  -20.6563 4.96167 4.14574
LeftShoulder1  -3.88251e-019 9.70628e-020 -3.87848e-018
LeftArm  -21.8939 15.5852 -66.0571
LeftForeArm  8.04892 -36.6144 8.7634
LeftHand  -5.97112 -10.4399 43.0645
RightShoulder  5.35729 9.54855 25.9692
RightArm  3.51415 -40.948 23.3463
RightForeArm  -0.0173149 38.1643 -21.4553
RightHand  -2.36027 4.24793 -27.6882
LeftUpLeg  -30.1847 0.104806 11.0804
LeftLeg  94.2191 -14.0853 5.43546
LeftFoot  -50.6129 -6.34635 -18.1312
LeftToes  1.69338e-011 3.79281e-011 -2.20049e-011
337
root  5.11937 26.9189 -58.3851 -173.577 -3.01111 -175.232
RightUpLeg  -72.1816 -7.96193 13.1478
RightLeg  81.5817 14.8246 -14.1923
RightFoot  -19.6371 0.028468 -0.612267
RightToes  -1.16415e-010 -3.18055e-015 -2.98177e-016
Spine  39.1173 -3.62489 4.78777
Spine1  -3.77867 -2.78907 7.72114
HEad  -20.5637 4.39121 4.24807
LeftShoulder1  -3.88251e-019 9.70628e-020 -3.87848e-018
LeftArm  -21.6012 15.7172 -65.9719
LeftForeArm  8.30795 -36.5493 8.75427
LeftHand  -6.01402 -10.4836 43.2333
RightShoulder  5.40569 9.57074 26.1999
RightArm  4.37471 -40.6329 22.8711
RightForeArm  1.00747 38.0201 -21.4019
RightHand  -2.32546 4.28084 -27.2079
LeftUpLeg  -30.2125 0.0770299 11.1445
LeftLeg  94.4672 -14.0408 4.93177
LeftFoot  -50.8247 -6.02312 -17.0943
LeftToes  1.69338e-011 3.79281e-011 -2.20049e-011
338
root  5.08391 26.9259 -58.2631 -173.726 -3.02002 -175.206
RightUpLeg  -72.1648 -7.78361 13.003
RightLeg  81.2843 14.7433 -14.4018
RightFoot  -19.1829 0.032007 -0.559355
RightToes  -1.16415e-010 -3.18055e-015 -2.98177e-016
Spine  39.0774 -3.46867 4.68337
Spine1  -3.84177 -2.65237 7.66217
HEad  -20.6982 3.86916 4.40016
LeftShoulder1  -3.88251e-019 9.70628e-020 -3.87848e-018
LeftArm  -21.4377 15.7692 -65.777
LeftForeArm  8.19759 -36.4253 8.70876
LeftHand  -5.97923 -10.36 43.3209
RightShoulder  5.42761 9.58121 26.3033
RightArm  5.04509 -40.2596 22.557
RightForeArm  2.14675 37.7681 -21.276
RightHand  -2.29375 4.24271 -26.953
LeftUpLeg  -30.4712 -0.0132703 11.2605
LeftLeg  94.9048 -13.9946 4.33908
LeftFoot  -50.6123 -5.81592 -16.6021
LeftToes  1.69338e-011 3.79281e-011 -2.20049e-011
339
root  5.05572 26.9427 -58.1462 -173.914 -3.01244 -175.194
RightUpLeg  -72.0176 -7.65708 12.8545
RightLeg  80.9668 14.6621 -14.4982
RightFoot  -18.9073 0.0366587 -0.472699
RightToes  -1.16415e-010 -3.18055e-015 -2.98177e-016
Spine  39.0284 -3.35725 4.61513
Spine1  -3.69871 -2.56997 7.56787
HEad  -20.9525 3.46443 4.52238
LeftShoulder1  -3.88251e-019 9.70628e-020 -3.87848e-018
LeftArm  -21.256 15.7879 -65.407
LeftForeArm  7.8054 -36.377 8.67477
LeftHand  -5.79703 -9.93254 43.2183
RightShoulder  5.39913 9.56185 26.1803
RightArm  5.13185 -40.1983 22.7105
RightForeArm  2.96449 37.5756 -21.1775
RightHand  -2.32768 4.37342 -26.9876
LeftUpLeg  -30.6489 0.207555 11.1695
LeftLeg  95.0596 -14.004 4.33798
LeftFoot  -50.4081 -5.84508 -16.7843
LeftToes  1.69338e-011 3.79281e-011 -2.20049e-011
340
root  5.02435 26.9761 -58.044 -174.1 -3.06032 -175.171
RightUpLeg  -71.8016 -7.79296 12.7964
RightLeg  80.6843 14.6035 -14.3573
RightFoot  -18.7779 0.0441865 -0.31853
RightToes  -1.16415e-010 -3.18055e-015 -2.98177e-016
Spine  38.96 -3.38574 4.69964
Spine1  -3.50143 -2.57334 7.31871
HEad  -21.1218 3.15638 4.49305
LeftShoulder1  -3.88251e-019 9.70628e-020 -3.87848e-018
LeftArm  -21.159 15.9265 -64.9804
LeftForeArm  7.57667 -36.4223 8.67873
LeftHand  -5.6176 -9.52181 43.084
RightShoulder  5.36637 9.53936 26.0388
RightArm  4.9474 -40.3773 23.0416
RightForeArm  3.20912 37.5079 -21.1409
RightHand  -2.39273 4.62035 -27.0633
LeftUpLeg  -30.6786 0.663533 10.9799
LeftLeg  94.8303 -14.0416 4.73506
LeftFoot  -50.487 -5.94897 -17.0473
LeftToes  1.69338e-011 3.79281e-011 -2.20049e-011
341
root  4.9894 27.0235 -57.9607 -174.144 -3.11456 -175.114
RightUpLeg  -71.6984 -7.99986 12.8346
RightLeg  80.4021 14.5525 -14.1309
RightFoot  -18.6313 0.0533608 -0.121154
RightToes  -1.16415e-010 -3.18055e-015 -2.98177e-016
Spine  38.8102 -3.41424 4.83824
Spine1  -3.382 -2.56784 7.14615
HEad  -21.1966 2.85779 4.3745
LeftShoulder1  -3.88251e-019 9.70628e-020 -3.87848e-018
LeftArm  -21.3112 16.2314 -64.746
LeftForeArm  7.69625 -36.5386 8.72212
LeftHand  -5.6036 -9.51658 43.001
RightShoulder  5.37274 9.54559 26.0626
RightArm  5.00137 -40.4128 23.1053
RightForeArm  3.1922 37.4261 -21.0814
RightHand  -2.37158 4.60733 -26.8645
LeftUpLeg  -30.7683 0.967777 10.9646
LeftLeg  94.6443 -14.0194 4.66429
LeftFoot  -50.6213 -5.91847 -16.8934
LeftToes  1.69338e-011 3.79281e-011 -2.20049e-011
342
root  4.95898 27.0726 -57.9009 -174.085 -3.05032 -175.116
RightUpLeg  -71.6807 -8.04003 12.8067
RightLeg  80.146 14.5077 -13.932
RightFoot  -18.4741 0.0618148 0.0717023
RightToes  -1.16415e-010 -3.18055e-015 -2.98177e-016
Spine  38.6168 -3.32307 4.85755
Spine1  -3.34431 -2.47305 7.07449
HEad  -21.2918 2.57623 4.32169
LeftShoulder1  -3.88251e-019 9.70628e-020 -3.87848e-018
LeftArm  -21.5121 16.6233 -64.6904
LeftForeArm  7.87553 -36.7486 8.7991
LeftHand  -5.70737 -9.76256 43.0582
RightShoulder  5.40556 9.56943 26.2018
RightArm  5.29423 -40.1802 22.9368
RightForeArm  3.3126 37.1616 -20.8985
RightHand  -2.25679 4.27128 -26.4601
LeftUpLeg  -30.8805 1.10895 11.0229
LeftLeg  94.6325 -13.9472 4.10554
LeftFoot  -50.6345 -5.78409 -16.4993
LeftToes  1.69338e-011 3.79281e-011 -2.20049e-011
343
root  4.93661 27.1219 -57.8672 -174.109 -2.91566 -175.23
RightUpLeg  -71.5476 -8.08126 12.661
RightLeg  79.9778 14.4898 -13.6697
RightFoot  -18.4414 0.0678372 0.207002
RightToes  -1.16415e-010 -3.18055e-015 -2.98177e-016
Spine  38.478 -3.23248 4.79181
Spine1  -3.30252 -2.37331 6.89832
HEad  -21.4236 2.40473 4.29902
LeftShoulder1  -3.88251e-019 9.70628e-020 -3.87848e-018
LeftArm  -21.4917 17.0163 -64.5869
LeftForeArm  7.89701 -37.0081 8.88549
LeftHand  -5.78635 -9.81874 43.4475
RightShoulder  5.41744 9.5754 26.2572
RightArm  5.40356 -39.8994 23.0041
RightForeArm  3.60175 36.6151 -20.5274
RightHand  -2.18293 4.03049 -26.2492
LeftUpLeg  -30.7737 1.37282 10.8713
LeftLeg  94.4312 -13.9076 3.88285
LeftFoot  -50.682 -5.7013 -16.238
LeftToes  1.69338e-011 3.79281e-011 -2.20049e-011
344
root  4.91744 27.186 -57.8515 -174.25 -2.92921 -175.359
RightUpLeg  -71.2448 -8.45437 12.5683
RightLeg  79.8496 14.4946 -13.2674
RightFoot  -18.529 0.0691669 0.226065
RightToes  -1.16415e-010 -3.18055e-015 -2.98177e-016
Spine  38.3914 -3.28097 4.8036
Spine1  -3.18554 -2.39364 6.68588
HEad  -21.511 2.31591 4.2034
LeftShoulder1  -3.88251e-019 9.70628e-020 -3.87848e-018
LeftArm  -21.4269 17.3494 -64.4392
LeftForeArm  7.93327 -37.1486 8.93371
LeftHand  -5.81601 -9.67642 44.0308
RightShoulder  5.3845 9.55731 26.1063
RightArm  5.16244 -39.7264 23.5198
RightForeArm  3.87181 35.7784 -19.9637
RightHand  -2.19781 4.06129 -26.3391
LeftUpLeg  -30.506 1.68573 10.588
LeftLeg  93.9431 -13.9095 4.13431
LeftFoot  -50.7888 -5.67834 -16.1222
LeftToes  1.69338e-011 3.79281e-011 -2.20049e-011
345
root  4.8967 27.2688 -57.8404 -174.366 -3.11131 -175.424
RightUpLeg  -70.9347 -9.05562 12.6108
RightLeg  79.6517 14.488 -12.8565
RightFoot  -18.5554 0.063514 0.100716
RightToes  -1.16415e-010 -3.18055e-015 -2.98177e-016
Spine  38.294 -3.37849 4.91815
Spine1  -3.03986 -2.47652 6.66859
HEad  -21.5518 2.15778 4.14579
LeftShoulder1  -3.88251e-019 9.70628e-020 -3.87848e-018
LeftArm  -21.621 17.5654 -64.4571
LeftForeArm  8.16411 -37.0694 8.91833
LeftHand  -5.85718 -9.70638 44.2307
RightShoulder  5.33317 9.54099 25.8471
RightArm  4.88457 -39.6071 24.102
RightForeArm  4.10856 34.8283 -19.3383
RightHand  -2.17896 3.98283 -26.3284
LeftUpLeg  -30.3541 1.75308 10.4721
LeftLeg  93.5573 -13.8795 4.06638
LeftFoot  -50.7226 -5.60269 -15.9346
LeftToes  1.69338e-011 3.79281e-011 -2.20049e-011
346
root  4.87678 27.3543 -57.8324 -174.38 -3.19566 -175.498
RightUpLeg  -70.7364 -9.42675 12.6234
RightLeg  79.3753 14.4526 -12.6135
RightFoot  -18.4134 0.0525482 -0.127815
RightToes  -1.16415e-010 -3.18055e-015 -2.98177e-016
Spine  38.2255 -3.37094 5.02626
Spine1  -3.03331 -2.45813 6.73661
HEad  -21.6527 1.90305 4.24412
LeftShoulder1  -3.88251e-019 9.70628e-020 -3.87848e-018
LeftArm  -21.9192 17.6729 -64.6064
LeftForeArm  8.46316 -36.8813 8.87032
LeftHand  -5.90235 -9.9671 43.8353
RightShoulder  5.30104 9.53736 25.6716
RightArm  4.8591 -39.5235 24.2914
RightForeArm  4.50866 34.0492 -18.8481
RightHand  -2.06351 3.59174 -26.0168
LeftUpLeg  -30.3059 1.72928 10.493
LeftLeg  93.4091 -13.8062 3.4481
LeftFoot  -50.494 -5.45116 -15.6002
LeftToes  1.69338e-011 3.79281e-011 -2.20049e-011
347
root  4.8629 27.4315 -57.8348 -174.332 -3.06712 -175.664
RightUpLeg  -70.6077 -9.4216 12.4734
RightLeg  79.0913 14.4011 -12.5388
RightFoot  -18.2012 0.042218 -0.352612
RightToes  -1.16415e-010 -3.18055e-015 -2.98177e-016
Spine  38.2671 -3.30091 5.08446
Spine1  -3.27952 -2.34396 6.63556
HEad  -21.8587 1.70443 4.31202
LeftShoulder1  -3.88251e-019 9.70628e-020 -3.87848e-018
LeftArm  -21.9553 17.7636 -64.6174
LeftForeArm  8.5764 -36.7374 8.82834
LeftHand  -5.88861 -10.0826 43.439
RightShoulder  5.28709 9.52721 25.6119
RightArm  4.92951 -39.5671 24.1533
RightForeArm  5.12181 33.5563 -18.5599
RightHand  -1.97724 3.29254 -25.7868
LeftUpLeg  -30.1565 2.01231 10.3735
LeftLeg  93.1262 -13.7514 3.02864
LeftFoot  -50.4119 -5.29601 -15.1858
LeftToes  1.69338e-011 3.79281e-011 -2.20049e-011
348
root  4.85593 27.5142 -57.8459 -174.246 -2.96379 -175.865
RightUpLeg  -70.4773 -9.33852 12.2456
RightLeg  78.7913 14.3397 -12.5311
RightFoot  -18.0445 0.0379407 -0.452211
RightToes  -1.16415e-010 -3.18055e-015 -2.98177e-016
Spine  38.3659 -3.31195 5.14284
Spine1  -3.65676 -2.3032 6.45135
HEad  -22.09 1.64307 4.15131
LeftShoulder1  -3.88251e-019 9.70628e-020 -3.87848e-018
LeftArm  -21.7611 17.8586 -64.441
LeftForeArm  8.43731 -36.6206 8.78357
LeftHand  -5.82777 -9.87128 43.5885
RightShoulder  5.27065 9.503 25.5655
RightArm  4.84311 -39.7417 24.0444
RightForeArm  5.54656 33.2808 -18.4043
RightHand  -2.00314 3.38095 -25.8612
LeftUpLeg  -29.9656 2.48744 10.0903
LeftLeg  92.5229 -13.7375 3.1505
LeftFoot  -50.5002 -5.16796 -14.7744
LeftToes  1.69338e-011 3.79281e-011 -2.20049e-011
349
root  4.8526 27.6199 -57.8558 -174.109 -3.06233 -176.028
RightUpLeg  -70.3211 -9.36587 12.0373
RightLeg  78.3966 14.2539 -12.5657
RightFoot  -17.9263 0.0408729 -0.381671
RightToes  -1.16415e-010 -3.18055e-015 -2.98177e-016
Spine  38.3817 -3.4112 5.23027
Spine1  -3.898 -2.38498 6.37481
HEad  -22.2936 1.6146 3.93497
LeftShoulder1  -3.88251e-019 9.70628e-020 -3.87848e-018
LeftArm  -21.6618 17.8501 -64.3115
LeftForeArm  8.24373 -36.4467 8.71786
LeftHand  -5.78515 -9.61569 43.9848
RightShoulder  5.25923 9.48662 25.5322
RightArm  4.71022 -39.9101 24.0298
RightForeArm  5.38235 33.1833 -18.3352
RightHand  -2.03082 3.52677 -25.797
LeftUpLeg  -29.9209 2.71506 9.86972
LeftLeg  91.8865 -13.7115 3.15657
LeftFoot  -50.4438 -5.05152 -14.4591
LeftToes  1.69338e-011 3.79281e-011 -2.20049e-011
